<svg width="23" height="23" viewBox="0 0 23 23" fill="none" xmlns="http://www.w3.org/2000/svg">
<path d="M1.9646 10.5417H6.70835V12.4584H3.89277C4.10608 14.1473 4.87519 15.7173 6.07895 16.9211C7.28272 18.1249 8.85273 18.894 10.5417 19.1073V9.46261C9.64039 9.22711 8.8556 8.67163 8.33388 7.89988C7.81215 7.12812 7.58915 6.19286 7.70652 5.26873C7.82389 4.34459 8.27359 3.49476 8.97167 2.87792C9.66974 2.26108 10.5685 1.91941 11.5 1.91669C12.4337 1.91577 13.3356 2.25564 14.0365 2.87251C14.7373 3.48938 15.189 4.34083 15.3066 5.26707C15.4242 6.1933 15.1998 7.13062 14.6754 7.9031C14.1509 8.67558 13.3626 9.23011 12.4584 9.46261V19.1073C14.1473 18.894 15.7173 18.1249 16.9211 16.9211C18.1248 15.7173 18.894 14.1473 19.1073 12.4584H16.2917V10.5417H21.0354C21.0671 10.857 21.0834 11.1771 21.0834 11.5C21.0834 16.7929 16.7929 21.0834 11.5 21.0834C6.20715 21.0834 1.91669 16.7929 1.91669 11.5C1.91669 11.1771 1.93298 10.857 1.9646 10.5417ZM11.5 7.66669C12.0084 7.66669 12.4959 7.46476 12.8553 7.10531C13.2148 6.74587 13.4167 6.25835 13.4167 5.75002C13.4167 5.24169 13.2148 4.75418 12.8553 4.39473C12.4959 4.03529 12.0084 3.83336 11.5 3.83336C10.9917 3.83336 10.5042 4.03529 10.1447 4.39473C9.78529 4.75418 9.58335 5.24169 9.58335 5.75002C9.58335 6.25835 9.78529 6.74587 10.1447 7.10531C10.5042 7.46476 10.9917 7.66669 11.5 7.66669Z" fill="#48484A"/>
</svg>
