<svg width="20" height="20" viewBox="0 0 20 20" fill="none" xmlns="http://www.w3.org/2000/svg">
<path d="M7.50004 3.33325H12.0384C12.1797 3.33325 12.3187 3.3692 12.4423 3.43772C12.566 3.50623 12.6701 3.60506 12.745 3.72492L15.625 8.33325H19.2984C19.3707 8.3332 19.4419 8.35199 19.5047 8.38777C19.5676 8.42356 19.6201 8.4751 19.657 8.53733C19.6939 8.59956 19.714 8.67033 19.7153 8.74267C19.7165 8.81502 19.6989 8.88644 19.6642 8.94992L16.3642 14.9999H15.8334C15.4017 15.0003 14.9717 14.9448 14.5542 14.8349L17.1917 9.99992H2.83337L3.70671 14.8533C3.31193 14.9509 2.90672 15.0002 2.50004 14.9999H2.04587L1.01254 9.31575C0.990713 9.19578 0.99548 9.07248 1.02651 8.95456C1.05753 8.83663 1.11406 8.72695 1.1921 8.63326C1.27014 8.53956 1.36779 8.46413 1.47816 8.4123C1.58853 8.36046 1.70894 8.33348 1.83087 8.33325H2.50004V4.16659C2.50004 3.94557 2.58784 3.73361 2.74412 3.57733C2.9004 3.42105 3.11236 3.33325 3.33337 3.33325H4.16671V0.833252H7.50004V3.33325ZM4.16671 8.33325H13.66L11.5767 4.99992H4.16671V8.33325ZM2.50004 16.6666C3.73026 16.6683 4.9176 16.2147 5.83337 15.3933C6.74914 16.2147 7.93649 16.6683 9.16671 16.6666C10.3969 16.6683 11.5843 16.2147 12.5 15.3933C13.4158 16.2147 14.6032 16.6683 15.8334 16.6666H17.5V18.3333H15.8334C14.6631 18.3352 13.5131 18.0275 12.5 17.4416C11.487 18.0275 10.337 18.3352 9.16671 18.3333C7.99641 18.3352 6.84642 18.0275 5.83337 17.4416C4.82033 18.0275 3.67034 18.3352 2.50004 18.3333H0.833374V16.6666H2.50004Z" fill="#48484A"/>
</svg>
