<svg width="23" height="23" viewBox="0 0 23 23" fill="none" xmlns="http://www.w3.org/2000/svg">
<path d="M2.12077 13.4741C1.84516 12.1725 1.84516 10.8275 2.12077 9.52581C3.18452 9.65039 4.1141 9.29868 4.41693 8.56652C4.72073 7.83339 4.31343 6.92777 3.47202 6.26364C4.19751 5.14845 5.14845 4.19751 6.26364 3.47202C6.92681 4.31248 7.83339 4.72073 8.56652 4.41693C9.29964 4.11314 9.65135 3.18452 9.52581 2.12077C10.8275 1.84516 12.1725 1.84516 13.4741 2.12077C13.3496 3.18452 13.7013 4.1141 14.4334 4.41693C15.1666 4.72073 16.0722 4.31343 16.7363 3.47202C17.8515 4.19751 18.8024 5.14845 19.5279 6.26364C18.6875 6.92681 18.2792 7.83339 18.583 8.56652C18.8868 9.29964 19.8154 9.65135 20.8792 9.52581C21.1548 10.8275 21.1548 12.1725 20.8792 13.4741C19.8154 13.3496 18.8859 13.7013 18.583 14.4334C18.2792 15.1666 18.6865 16.0722 19.5279 16.7363C18.8024 17.8515 17.8515 18.8024 16.7363 19.5279C16.0731 18.6875 15.1666 18.2792 14.4334 18.583C13.7003 18.8868 13.3486 19.8154 13.4741 20.8792C12.1725 21.1548 10.8275 21.1548 9.52581 20.8792C9.65039 19.8154 9.29868 18.8859 8.56652 18.583C7.83339 18.2792 6.92777 18.6865 6.26364 19.5279C5.14845 18.8024 4.19751 17.8515 3.47202 16.7363C4.31248 16.0731 4.72073 15.1666 4.41693 14.4334C4.11314 13.7003 3.18452 13.3486 2.12077 13.4741ZM3.83331 11.7012C4.88748 11.9935 5.75668 12.6615 6.18793 13.7003C6.61823 14.7401 6.47543 15.8278 5.93685 16.7785C6.02885 16.8762 6.12373 16.9711 6.22148 17.0631C7.1731 16.5245 8.25985 16.3827 9.29964 16.812C10.3385 17.2433 11.0064 18.1125 11.2987 19.1666C11.4329 19.1705 11.5671 19.1705 11.7012 19.1666C11.9935 18.1125 12.6615 17.2433 13.7003 16.812C14.7401 16.3817 15.8278 16.5245 16.7785 17.0631C16.8762 16.9711 16.9711 16.8762 17.0631 16.7785C16.5245 15.8269 16.3827 14.7401 16.812 13.7003C17.2433 12.6615 18.1125 11.9935 19.1666 11.7012C19.1705 11.5671 19.1705 11.4329 19.1666 11.2987C18.1125 11.0064 17.2433 10.3385 16.812 9.29964C16.3817 8.25985 16.5245 7.17214 17.0631 6.22148C16.9708 6.12411 16.8758 6.0292 16.7785 5.93685C15.8269 6.47543 14.7401 6.61727 13.7003 6.18793C12.6615 5.75668 11.9935 4.88748 11.7012 3.83331C11.5671 3.82976 11.4329 3.82976 11.2987 3.83331C11.0064 4.88748 10.3385 5.75668 9.29964 6.18793C8.25985 6.61823 7.17214 6.47543 6.22148 5.93685C6.12373 6.02885 6.02885 6.12373 5.93685 6.22148C6.47543 7.1731 6.61727 8.25985 6.18793 9.29964C5.75668 10.3385 4.88748 11.0064 3.83331 11.2987C3.82948 11.4329 3.82948 11.5671 3.83331 11.7012ZM11.5 14.375C10.7375 14.375 10.0062 14.0721 9.46704 13.5329C8.92788 12.9937 8.62498 12.2625 8.62498 11.5C8.62498 10.7375 8.92788 10.0062 9.46704 9.46704C10.0062 8.92788 10.7375 8.62498 11.5 8.62498C12.2625 8.62498 12.9937 8.92788 13.5329 9.46704C14.0721 10.0062 14.375 10.7375 14.375 11.5C14.375 12.2625 14.0721 12.9937 13.5329 13.5329C12.9937 14.0721 12.2625 14.375 11.5 14.375ZM11.5 12.4583C11.7541 12.4583 11.9979 12.3573 12.1776 12.1776C12.3573 11.9979 12.4583 11.7541 12.4583 11.5C12.4583 11.2458 12.3573 11.0021 12.1776 10.8223C11.9979 10.6426 11.7541 10.5416 11.5 10.5416C11.2458 10.5416 11.0021 10.6426 10.8223 10.8223C10.6426 11.0021 10.5416 11.2458 10.5416 11.5C10.5416 11.7541 10.6426 11.9979 10.8223 12.1776C11.0021 12.3573 11.2458 12.4583 11.5 12.4583Z" fill="#48484A"/>
</svg>
