<svg width="22" height="22" viewBox="0 0 22 22" fill="none" xmlns="http://www.w3.org/2000/svg">
<defs>
<linearGradient id="paint0_linear_880_1917" x1="10.0833" y1="1.83337" x2="10.0833" y2="20.1667" gradientUnits="userSpaceOnUse">
<stop stop-color="#7047DC"/>
<stop offset="1" stop-color="#9879E7"/>
</linearGradient>
</defs>
<path d="M3.66665 13.75H5.49998V18.3334H16.5V3.66671H5.49998V8.25004H3.66665V2.75004C3.66665 2.50693 3.76322 2.27377 3.93513 2.10186C4.10704 1.92995 4.3402 1.83337 4.58331 1.83337H17.4166C17.6598 1.83337 17.8929 1.92995 18.0648 2.10186C18.2367 2.27377 18.3333 2.50693 18.3333 2.75004V19.25C18.3333 19.4932 18.2367 19.7263 18.0648 19.8982C17.8929 20.0701 17.6598 20.1667 17.4166 20.1667H4.58331C4.3402 20.1667 4.10704 20.0701 3.93513 19.8982C3.76322 19.7263 3.66665 19.4932 3.66665 19.25V13.75ZM9.16665 10.0834V7.33337L13.75 11L9.16665 14.6667V11.9167H1.83331V10.0834H9.16665Z" fill="url(#paint0_linear_880_1917)"/>

</svg>
