<svg width="23" height="23" viewBox="0 0 23 23" fill="none" xmlns="http://www.w3.org/2000/svg">
<path d="M5.43469 4.07963C9.19902 0.99476 14.7621 1.20943 18.2764 4.72363C22.0186 8.46593 22.0186 14.5341 18.2764 18.2764C14.5341 22.0187 8.4659 22.0187 4.72361 18.2764C3.57517 17.1295 2.73706 15.7096 2.28797 14.1499C1.83888 12.5903 1.79355 10.942 2.15623 9.36005L2.23002 9.06009L4.08344 9.54884C3.62396 11.2952 3.79565 13.1477 4.56824 14.7798C5.34083 16.4119 6.66475 17.719 8.30666 18.4706C9.94857 19.2222 11.8031 19.3702 13.5434 18.8884C15.2837 18.4065 16.7981 17.3259 17.8196 15.8369C18.8412 14.3478 19.3044 12.546 19.1276 10.7489C18.9508 8.95183 18.1453 7.27483 16.8531 6.01346C15.5609 4.75209 13.865 3.98731 12.0641 3.85391C10.2633 3.72051 8.47317 4.22705 7.00923 5.28426L6.79744 5.44334L7.77207 6.41797L3.36757 7.4338L4.3834 3.0293L5.43373 4.07963H5.43469ZM12.4583 5.75001V7.66668H14.8542V9.58334H9.58332C9.46358 9.58312 9.34809 9.62774 9.25961 9.70841C9.17112 9.78909 9.11605 9.89996 9.10523 10.0192C9.09441 10.1385 9.12863 10.2574 9.20115 10.3527C9.27367 10.448 9.37924 10.5127 9.49707 10.534L9.58332 10.5417H13.4167C14.0521 10.5417 14.6615 10.7941 15.1108 11.2434C15.5601 11.6927 15.8125 12.3021 15.8125 12.9375C15.8125 13.5729 15.5601 14.1823 15.1108 14.6316C14.6615 15.0809 14.0521 15.3333 13.4167 15.3333H12.4583V17.25H10.5416V15.3333H8.14582V13.4167H13.4167C13.5364 13.4169 13.6519 13.3723 13.7404 13.2916C13.8288 13.2109 13.8839 13.1001 13.8947 12.9808C13.9056 12.8616 13.8713 12.7426 13.7988 12.6473C13.7263 12.552 13.6207 12.4873 13.5029 12.466L13.4167 12.4583H9.58332C8.9479 12.4583 8.33851 12.2059 7.88921 11.7566C7.4399 11.3073 7.18748 10.6979 7.18748 10.0625C7.18748 9.4271 7.4399 8.81771 7.88921 8.3684C8.33851 7.91909 8.9479 7.66668 9.58332 7.66668H10.5416V5.75001H12.4583Z" fill="#48484A"/>
</svg>
