<svg width="19" height="22" viewBox="0 0 19 22" fill="none" xmlns="http://www.w3.org/2000/svg">
<mask id="path-1-inside-1_437_8365" fill="white">
<path fill-rule="evenodd" clip-rule="evenodd" d="M0 1.00362V14.2259L9.5 22L19 14.2259V2.94392V0C19 0 18.3218 1.06493 17 1.95664C15.4584 2.99662 13.0414 3.80097 9.80387 2.40548C3.7904 -0.186554 0 1.00362 0 1.00362ZM17 4.26154C15.0064 5.23384 12.2841 5.65244 9.01221 4.24212C6.25504 3.05368 4.06347 2.75484 2.61575 2.7323C2.39341 2.72883 2.18795 2.73188 2 2.73934V13.2783L9.5 19.4157L17 13.2783V4.26154Z"/>
</mask>
<path fill-rule="evenodd" clip-rule="evenodd" d="M0 1.00362V14.2259L9.5 22L19 14.2259V2.94392V0C19 0 18.3218 1.06493 17 1.95664C15.4584 2.99662 13.0414 3.80097 9.80387 2.40548C3.7904 -0.186554 0 1.00362 0 1.00362ZM17 4.26154C15.0064 5.23384 12.2841 5.65244 9.01221 4.24212C6.25504 3.05368 4.06347 2.75484 2.61575 2.7323C2.39341 2.72883 2.18795 2.73188 2 2.73934V13.2783L9.5 19.4157L17 13.2783V4.26154Z" fill="#48484A"/>
<path d="M0 1.00362L-0.299576 0.0495495L-1 0.269481V1.00362H0ZM0 14.2259H-1V14.6997L-0.633304 14.9998L0 14.2259ZM9.5 22L8.86669 22.7739L9.5 23.2922L10.1333 22.7739L9.5 22ZM19 14.2259L19.6333 14.9998L20 14.6998V14.2259H19ZM19 0H20V-3.43185L18.1565 -0.537167L19 0ZM17 1.95664L17.5593 2.78564V2.78564L17 1.95664ZM9.80387 2.40548L10.1997 1.48715L9.80387 2.40548ZM9.01221 4.24212L9.40804 3.3238H9.40804L9.01221 4.24212ZM17 4.26154H18V2.66121L16.5616 3.36274L17 4.26154ZM2.61575 2.7323L2.63132 1.73242H2.63132L2.61575 2.7323ZM2 2.73934L1.96037 1.74012L1 1.77821V2.73934H2ZM2 13.2783H1V13.7521L1.3667 14.0522L2 13.2783ZM9.5 19.4157L8.8667 20.1896L9.5 20.7078L10.1333 20.1896L9.5 19.4157ZM17 13.2783L17.6333 14.0522L18 13.7521V13.2783H17ZM-1 1.00362V14.2259H1V1.00362H-1ZM-0.633304 14.9998L8.86669 22.7739L10.1333 21.2261L0.633304 13.452L-0.633304 14.9998ZM10.1333 22.7739L19.6333 14.9998L18.3667 13.452L8.8667 21.2261L10.1333 22.7739ZM20 14.2259V2.94392H18V14.2259H20ZM20 2.94392V0H18V2.94392H20ZM19 0C18.1565 -0.537167 18.1567 -0.537371 18.1568 -0.53757C18.1568 -0.537631 18.1569 -0.537827 18.157 -0.53795C18.1572 -0.538194 18.1573 -0.538423 18.1575 -0.538637C18.1577 -0.539064 18.158 -0.539427 18.1582 -0.539729C18.1585 -0.540332 18.1588 -0.540685 18.1588 -0.540794C18.159 -0.541012 18.1585 -0.540253 18.1574 -0.538553C18.1551 -0.535151 18.1504 -0.527996 18.1431 -0.517382C18.1286 -0.496137 18.1041 -0.461141 18.0697 -0.414717C18.0008 -0.321711 17.8931 -0.183841 17.7473 -0.0193753C17.4543 0.311202 17.0163 0.739375 16.4407 1.12764L17.5593 2.78564C18.3055 2.2822 18.8675 1.73205 19.244 1.30724C19.433 1.09401 19.5775 0.90991 19.6771 0.775375C19.7269 0.708028 19.7657 0.65286 19.7934 0.612383C19.8073 0.592136 19.8184 0.575541 19.8267 0.562907C19.8309 0.55659 19.8344 0.551261 19.8372 0.546959C19.8386 0.544807 19.8398 0.542913 19.8408 0.541279C19.8414 0.540463 19.8419 0.539711 19.8423 0.539026C19.8425 0.538683 19.8427 0.538357 19.8429 0.538047C19.843 0.537892 19.8432 0.537672 19.8432 0.537595C19.8433 0.537379 19.8435 0.537167 19 0ZM16.4407 1.12764C15.1342 2.00906 13.0754 2.72668 10.1997 1.48715L9.40804 3.3238C13.0074 4.87527 15.7826 3.98418 17.5593 2.78564L16.4407 1.12764ZM10.1997 1.48715C7.06819 0.137352 4.48752 -0.238923 2.66245 -0.267341C1.75142 -0.281527 1.03212 -0.208999 0.52996 -0.12956C0.278922 -0.0898471 0.0822009 -0.0484161 -0.0570685 -0.0152473C-0.126705 0.00133756 -0.18199 0.0158595 -0.222532 0.0270726C-0.242804 0.0326793 -0.259392 0.0374593 -0.272249 0.0412571C-0.278677 0.043156 -0.284172 0.0448094 -0.288728 0.046198C-0.291007 0.0468922 -0.29305 0.0475203 -0.294858 0.0480797C-0.295763 0.0483594 -0.296608 0.0486219 -0.297394 0.048867C-0.297787 0.0489895 -0.298333 0.04916 -0.298529 0.0492214C-0.29906 0.0493876 -0.299576 0.0495495 0 1.00362C0.299576 1.95769 0.299089 1.95785 0.298616 1.958C0.298478 1.95804 0.298018 1.95818 0.297741 1.95827C0.297186 1.95844 0.296687 1.9586 0.296245 1.95873C0.295361 1.95901 0.294702 1.95921 0.294269 1.95934C0.293402 1.9596 0.293435 1.95959 0.294362 1.95932C0.296217 1.95877 0.301647 1.95718 0.310605 1.9547C0.328522 1.94975 0.360544 1.94123 0.406296 1.93034C0.497805 1.90854 0.644189 1.87724 0.842463 1.84587C1.23892 1.78316 1.84307 1.72014 2.63132 1.73242C4.20482 1.75692 6.52609 2.08157 9.40804 3.3238L10.1997 1.48715ZM8.61638 5.16044C12.1743 6.69405 15.2014 6.25135 17.4384 5.16033L16.5616 3.36274C14.8115 4.21634 12.394 4.61084 9.40804 3.3238L8.61638 5.16044ZM2.60018 3.73217C3.9221 3.75276 5.98398 4.02578 8.61638 5.16044L9.40804 3.3238C6.52609 2.08157 4.20483 1.75692 2.63132 1.73242L2.60018 3.73217ZM2.03963 3.73855C2.20952 3.73181 2.39658 3.729 2.60018 3.73217L2.63132 1.73242C2.39025 1.72866 2.16637 1.73195 1.96037 1.74012L2.03963 3.73855ZM3 13.2783V2.73934H1V13.2783H3ZM10.1333 18.6418L2.6333 12.5044L1.3667 14.0522L8.8667 20.1896L10.1333 18.6418ZM16.3667 12.5044L8.8667 18.6418L10.1333 20.1896L17.6333 14.0522L16.3667 12.5044ZM16 4.26154V13.2783H18V4.26154H16Z" fill="#48484A" mask="url(#path-1-inside-1_437_8365)"/>
<path fill-rule="evenodd" clip-rule="evenodd" d="M7.39394 5H6V16H9.48485C11.9785 16 14 14.0587 14 11.664C14 9.26933 11.9785 7.32804 9.48485 7.32804H7.39394V5ZM7.39394 8.66667V14.6614H9.48485C11.2086 14.6614 12.6061 13.3194 12.6061 11.664C12.6061 10.0086 11.2086 8.66667 9.48485 8.66667H7.39394Z" fill="#48484A"/>
</svg>
