<svg width="20" height="20" viewBox="0 0 20 20" fill="none" xmlns="http://www.w3.org/2000/svg">
<path d="M4.10746 13.6489C2.59943 14.1013 1.66669 14.7263 1.66669 15.4167C1.66669 16.7974 5.39765 17.9167 10 17.9167C14.6024 17.9167 18.3334 16.7974 18.3334 15.4167C18.3334 14.7263 17.4006 14.1013 15.8926 13.6489" stroke="#12BFF9" stroke-width="1.5" stroke-linecap="round" stroke-linejoin="round"/>
<path d="M9.99998 14.5833C9.99998 14.5833 15.4166 11.0433 15.4166 6.95076C15.4166 4.03244 12.9915 1.66667 9.99998 1.66667C7.00844 1.66667 4.58331 4.03244 4.58331 6.95076C4.58331 11.0433 9.99998 14.5833 9.99998 14.5833Z" stroke="#12BFF9" stroke-width="1.5" stroke-linejoin="round"/>
<path d="M10 9.16667C11.1506 9.16667 12.0834 8.23392 12.0834 7.08333C12.0834 5.93275 11.1506 5 10 5C8.84944 5 7.91669 5.93275 7.91669 7.08333C7.91669 8.23392 8.84944 9.16667 10 9.16667Z" stroke="#12BFF9" stroke-width="1.5" stroke-linejoin="round"/>
</svg>
