<svg width="107" height="17" viewBox="0 0 107 17" fill="none" xmlns="http://www.w3.org/2000/svg">
<path d="M94.5435 0.529315H95.7745L99.6626 5.90435L100.589 7.10247H100.613L101.564 5.92633L105.525 0.529315H106.732L101.381 7.77297L107 15.2255H105.781L101.564 9.61961L100.589 8.37753H100.54L99.5407 9.66358L95.2992 15.2255H94.0925L99.8089 7.68504L94.5435 0.529315Z" fill="white"/>
<path d="M77.6149 0.529315V10.1557C77.6149 11.9691 78.1353 13.3608 79.1761 14.3309C80.2256 15.2935 81.7998 15.7749 83.8988 15.7749C86.5444 15.7749 88.3632 15.0431 89.3552 13.5795V15.3591H90.2478L90.2477 0.529315H89.3716V10.0924H89.3552V10.9333C89.2432 12.1591 88.5723 13.1088 87.7498 13.7824C86.8478 14.5137 85.5728 14.8794 83.9248 14.8794C82.2942 14.8794 81.0235 14.4988 80.1128 13.7376C79.2108 12.9765 78.491 11.9206 78.491 10.5699V0.529315H77.6149Z" fill="white"/>
<path d="M64.0208 0.391968H65.0146V14.7084H74.594V15.6375H64.0208V0.391968Z" fill="white"/>
<path d="M53.4229 1.46434H47.5431V0.529315H60.4506V1.46434H54.5453V15.6375H53.4229V1.46434Z" fill="white"/>
<path d="M32.5759 15.6375L39.8201 0.391968H40.959L48.2297 15.6375H46.9451L44.4023 10.2212H36.0947L33.5652 15.6375H32.5759ZM43.9653 9.30896L40.3052 1.57786L36.492 9.30896H43.9653Z" fill="white"/>
<path d="M15.9609 8.30649C15.9609 6.79788 16.2921 5.44089 16.9546 4.23552C17.6257 3.03014 18.5548 2.0901 19.7421 1.4154C20.9293 0.733111 22.2758 0.391968 23.7814 0.391968C25.3558 0.391968 26.7323 0.733111 27.911 1.4154C29.0982 2.0901 30.0102 3.02635 30.6468 4.22414C31.2921 5.42194 31.6147 6.78272 31.6147 8.30649C31.6147 9.80752 31.2835 11.1569 30.621 12.3547C29.9586 13.5525 29.0337 14.4926 27.8464 15.1748C26.6678 15.8496 25.3343 16.1869 23.8459 16.1869C22.2543 16.1869 20.8605 15.8496 19.6647 15.1748C18.4774 14.5001 17.5611 13.5677 16.9159 12.3775C16.2792 11.1797 15.9609 9.82269 15.9609 8.30649ZM30.3887 8.30649C30.3887 6.85095 30.0962 5.5963 29.5112 4.54255C28.9262 3.48121 28.1303 2.67763 27.1238 2.1318C26.1258 1.57839 25.0116 1.30168 23.7814 1.30168C22.5683 1.30168 21.4585 1.57839 20.4519 2.1318C19.4453 2.67763 18.6452 3.48121 18.0515 4.54255C17.4665 5.5963 17.174 6.85095 17.174 8.30649C17.174 9.7772 17.4708 11.0394 18.0644 12.0932C18.6581 13.1394 19.4582 13.9316 20.4648 14.4698C21.48 15.0081 22.607 15.2772 23.8459 15.2772C25.059 15.2772 26.1602 15.0081 27.1496 14.4698C28.139 13.9316 28.9262 13.1394 29.5112 12.0932C30.0962 11.0394 30.3887 9.7772 30.3887 8.30649Z" fill="white"/>
<path d="M3.63016 0.391968C5.36122 0.391968 6.70589 0.448982 7.66416 0.56301C8.62243 0.669436 9.48796 0.897492 10.2608 1.24718C11.0336 1.58926 11.5951 2.00356 11.9455 2.49008C12.2958 2.9766 12.471 3.56195 12.471 4.24612C12.471 6.13138 11.1727 7.29827 8.57606 7.74678V7.79239C10.0701 7.81519 11.2396 8.13827 12.0846 8.76163C12.9295 9.37738 13.352 10.2364 13.352 11.3387C13.352 12.1445 13.0428 12.8932 12.4246 13.585C11.8167 14.2692 10.9975 14.7823 9.9671 15.1244C8.94701 15.4665 7.30867 15.6375 5.05211 15.6375H0.307129V0.391968H3.63016ZM10.9408 4.29173C10.9408 3.59235 10.7296 3.02982 10.3071 2.60411C9.89497 2.17081 9.25612 1.84773 8.39059 1.63487C7.52506 1.41442 6.14948 1.30419 4.26385 1.30419H1.66725V7.37048H5.91764C7.08199 7.37048 8.0248 7.25265 8.74608 7.017C9.46735 6.77374 10.0135 6.42025 10.3844 5.95654C10.7554 5.48522 10.9408 4.93028 10.9408 4.29173ZM11.8373 11.3387C11.8373 10.5481 11.5797 9.8981 11.0645 9.38878C10.5596 8.87185 9.68889 8.54117 8.45241 8.39674C7.8857 8.33592 7.05107 8.30551 5.94855 8.30551H1.66725V14.7253H5.25303C6.74711 14.7253 7.98874 14.6151 8.97792 14.3946C9.9671 14.1742 10.6884 13.7827 11.1418 13.2201C11.6054 12.65 11.8373 12.0228 11.8373 11.3387Z" fill="white"/>
</svg>
