<svg width="23" height="23" viewBox="0 0 23 23" fill="none" xmlns="http://www.w3.org/2000/svg">
<path d="M11.5 21.0834C6.20715 21.0834 1.91669 16.7929 1.91669 11.5C1.91669 6.20715 6.20715 1.91669 11.5 1.91669C16.7929 1.91669 21.0834 6.20715 21.0834 11.5C21.0834 16.7929 16.7929 21.0834 11.5 21.0834ZM6.72081 17.4954C8.07738 18.5799 9.76321 19.1695 11.5 19.1667C13.3879 19.1667 15.1158 18.4844 16.4517 17.3535C15.8276 16.7131 15.0814 16.2044 14.2572 15.8574C13.433 15.5104 12.5476 15.3322 11.6534 15.3334C10.7263 15.3323 9.80905 15.5239 8.95993 15.8961C8.11081 16.2683 7.34831 16.8129 6.72081 17.4954ZM5.38202 16.1192C6.18746 15.2644 7.15941 14.5837 8.23799 14.1189C9.31656 13.6541 10.4789 13.4151 11.6534 13.4167C12.7858 13.4152 13.9073 13.6375 14.9536 14.0706C15.9999 14.5038 16.9503 15.1394 17.7503 15.9409C18.5707 14.7863 19.0552 13.4269 19.15 12.0136C19.2448 10.6003 18.9462 9.18841 18.2874 7.9345C17.6286 6.68059 16.6353 5.6337 15.4177 4.90999C14.2 4.18628 12.8057 3.81403 11.3894 3.83455C9.97313 3.85508 8.5902 4.26756 7.39406 5.02625C6.19793 5.78493 5.23536 6.86016 4.61314 8.13263C3.99093 9.40511 3.73339 10.8251 3.86911 12.235C4.00484 13.645 4.5285 14.9897 5.38202 16.1201V16.1192ZM11.5 12.4584C10.4834 12.4584 9.50833 12.0545 8.78945 11.3356C8.07056 10.6167 7.66669 9.64169 7.66669 8.62502C7.66669 7.60836 8.07056 6.63333 8.78945 5.91444C9.50833 5.19556 10.4834 4.79169 11.5 4.79169C12.5167 4.79169 13.4917 5.19556 14.2106 5.91444C14.9295 6.63333 15.3334 7.60836 15.3334 8.62502C15.3334 9.64169 14.9295 10.6167 14.2106 11.3356C13.4917 12.0545 12.5167 12.4584 11.5 12.4584ZM11.5 10.5417C12.0084 10.5417 12.4959 10.3398 12.8553 9.98031C13.2148 9.62086 13.4167 9.13335 13.4167 8.62502C13.4167 8.11669 13.2148 7.62918 12.8553 7.26973C12.4959 6.91029 12.0084 6.70835 11.5 6.70835C10.9917 6.70835 10.5042 6.91029 10.1447 7.26973C9.78529 7.62918 9.58335 8.11669 9.58335 8.62502C9.58335 9.13335 9.78529 9.62086 10.1447 9.98031C10.5042 10.3398 10.9917 10.5417 11.5 10.5417Z" fill="#48484A"/>
</svg>
