<svg width="56" height="14" viewBox="0 0 56 14" fill="none" xmlns="http://www.w3.org/2000/svg">
<defs>
<linearGradient id="paint0_linear_909_1866" x1="14.9369" y1="7.00305" x2="0.000865041" y2="7.00305" gradientUnits="userSpaceOnUse">
<stop stop-color="#A4E9F9"/>
<stop offset="1" stop-color="#8578EA"/>
</linearGradient>
<linearGradient id="paint1_linear_909_1866" x1="13.2119" y1="10.2445" x2="1.84734" y2="3.54906" gradientUnits="userSpaceOnUse">
<stop stop-color="#00C6C1"/>
<stop offset="1" stop-color="#6E3AE8"/>
</linearGradient>
<linearGradient id="paint2_linear_909_1866" x1="1.71635e-05" y1="10.4994" x2="10.0423" y2="10.4994" gradientUnits="userSpaceOnUse">
<stop stop-color="#5626AD"/>
<stop offset="0.44" stop-color="#632CC9" stop-opacity="0.52"/>
<stop offset="0.82" stop-color="#6E31DE" stop-opacity="0.15"/>
<stop offset="1" stop-color="#7233E7" stop-opacity="0"/>
</linearGradient>
<linearGradient id="paint3_linear_909_1866" x1="353.809" y1="75.3116" x2="524.975" y2="-69.5094" gradientUnits="userSpaceOnUse">
<stop stop-color="#5626AD"/>
<stop offset="0.44" stop-color="#632CC9" stop-opacity="0.52"/>
<stop offset="0.82" stop-color="#6E31DE" stop-opacity="0.15"/>
<stop offset="1" stop-color="#7233E7" stop-opacity="0"/>
</linearGradient>
<linearGradient id="paint4_linear_909_1866" x1="7.46887" y1="3.53415" x2="14.9334" y2="3.53415" gradientUnits="userSpaceOnUse">
<stop stop-color="#00C6C1"/>
<stop offset="1" stop-color="#00C6C1" stop-opacity="0"/>
</linearGradient>
<linearGradient id="paint5_linear_909_1866" x1="14.2717" y1="7.65241" x2="8.38977" y2="1.65044" gradientUnits="userSpaceOnUse">
<stop stop-color="#33D1CD" stop-opacity="0"/>
<stop offset="1" stop-color="#00C6C1"/>
</linearGradient>
</defs>
<path d="M12.854 10.2077L14.7413 7.64124C14.8686 7.45175 14.9364 7.22989 14.9364 7.00305C14.9364 6.77621 14.8686 6.55435 14.7413 6.36486L10.2474 0.270447C10.1963 0.192617 10.1269 0.127921 10.0451 0.0817799C9.96322 0.0356386 9.87126 0.00939549 9.77692 0.00524902H5.15994C5.0656 0.00939549 4.97364 0.0356386 4.89178 0.0817799C4.80991 0.127921 4.74053 0.192617 4.68943 0.270447L0.19553 6.36144C0.0681 6.55102 0.000183105 6.77305 0.000183105 7.00006C0.000183105 7.22707 0.0681 7.44909 0.19553 7.63867L4.71911 13.7365C4.77049 13.8141 4.8401 13.8786 4.92211 13.9244C5.00413 13.9703 5.09616 13.9962 5.19049 14H10.0414L7.46887 10.5447L4.85005 7.00048L7.46887 3.45624L10.0877 7.00048L7.54569 10.4566L12.3861 10.472C12.48 10.4678 12.5715 10.4415 12.6529 10.3956C12.7343 10.3496 12.8032 10.2851 12.854 10.2077Z" fill="url(#paint0_linear_909_1866)"/>
<path d="M12.854 10.2077L14.7413 7.64124C14.8686 7.45175 14.9364 7.22989 14.9364 7.00305C14.9364 6.77621 14.8686 6.55435 14.7413 6.36486L10.2474 0.270447C10.1963 0.192617 10.1269 0.127921 10.0451 0.0817799C9.96322 0.0356386 9.87126 0.00939549 9.77692 0.00524902H5.15994C5.0656 0.00939549 4.97364 0.0356386 4.89178 0.0817799C4.80991 0.127921 4.74053 0.192617 4.68943 0.270447L0.19553 6.36144C0.0681 6.55102 0.000183105 6.77305 0.000183105 7.00006C0.000183105 7.22707 0.0681 7.44909 0.19553 7.63867L4.71911 13.7365C4.77049 13.8141 4.8401 13.8786 4.92211 13.9244C5.00413 13.9703 5.09616 13.9962 5.19049 14H10.0414L7.46887 10.5447L4.85005 7.00048L7.46887 3.45624L10.0877 7.00048L7.54569 10.4566L12.3861 10.472C12.48 10.4678 12.5715 10.4415 12.6529 10.3956C12.7343 10.3496 12.8032 10.2851 12.854 10.2077Z" fill="url(#paint1_linear_909_1866)"/>
<path d="M10.0388 13.9957L7.46802 10.5447L4.85444 7.0022H1.71635e-05C-0.00117146 7.21403 0.0594 7.42179 0.174605 7.60103L1.37664 9.24013L4.72 13.7382C4.76602 13.8055 4.82549 13.8629 4.89481 13.9071C4.96413 13.9512 5.04186 13.981 5.1233 13.9949" fill="url(#paint2_linear_909_1866)"/>
<path d="M9.87909 0.0103869C9.92517 0.0208218 9.96954 0.0375229 10.0109 0.0600045L7.4689 3.45625L4.94611 0.0540162C5.01622 0.0193007 5.09364 0.00113704 5.1722 0.00097662H9.7883C9.80603 -0.00032554 9.82383 -0.00032554 9.84155 0.00097662C9.85438 0.00273885 9.86697 0.00589502 9.87909 0.0103869Z" fill="url(#paint3_linear_909_1866)"/>
<path d="M14.9185 7.00482H14.9325C14.9398 6.77649 14.8729 6.5518 14.7413 6.36321L10.2474 0.269647C10.1853 0.183573 10.1038 0.112722 10.0091 0.0626221L7.46887 3.4563L10.0877 7.00054H14.9369" fill="url(#paint4_linear_909_1866)"/>
<path d="M14.9185 7.00482H14.9325C14.9398 6.77649 14.8729 6.5518 14.7413 6.36321L10.2474 0.269647C10.1853 0.183573 10.1038 0.112722 10.0091 0.0626221L7.46887 3.4563L10.0877 7.00054H14.9369" fill="url(#paint5_linear_909_1866)"/>
<path d="M55.9886 7.27258V8.63279C55.9887 8.66095 55.9832 8.68885 55.9723 8.7149C55.9613 8.74094 55.9453 8.76462 55.925 8.78457C55.9047 8.80452 55.8806 8.82035 55.8541 8.83115C55.8276 8.84196 55.7991 8.84752 55.7704 8.84752H54.3432V7.48902C54.3428 7.46093 54.3481 7.43305 54.3588 7.40698C54.3694 7.3809 54.3852 7.35713 54.4052 7.33703C54.4252 7.31694 54.4491 7.3009 54.4754 7.28984C54.5018 7.27878 54.5301 7.27292 54.5588 7.27258H55.9886Z" fill="white"/>
<path d="M51.3621 7.2725H49.3098V1.19861H47.9244C47.8663 1.19861 47.8106 1.22123 47.7695 1.2615C47.7284 1.30177 47.7053 1.35638 47.7053 1.41333V8.84657H50.9692H52.9473C53.003 8.84554 53.0563 8.82373 53.0962 8.78558C53.1361 8.74744 53.1596 8.69583 53.1621 8.64126V7.27677L51.3621 7.2725Z" fill="white"/>
<path d="M31.7541 4.00286V3.51438V1.66484C31.7546 1.66028 31.7546 1.6557 31.7541 1.65115V1.4176C31.7541 1.36088 31.7311 1.30648 31.6902 1.26638C31.6493 1.22627 31.5938 1.20374 31.5359 1.20374H30.161V1.49887V3.73167V5.86181C30.161 6.04829 30.1235 6.23294 30.0506 6.40519C29.9777 6.57745 29.8708 6.73392 29.7362 6.86566C29.6015 6.99741 29.4416 7.10183 29.2657 7.17296C29.0898 7.24409 28.9013 7.28053 28.7111 7.28019H28.6648C28.2809 7.28019 27.9128 7.13075 27.6414 6.86476C27.3699 6.59876 27.2175 6.23799 27.2175 5.86181V4.54266V1.49802V1.20374H25.8391C25.8104 1.20374 25.782 1.20927 25.7556 1.22002C25.7291 1.23076 25.705 1.24652 25.6848 1.26638C25.6645 1.28624 25.6484 1.30981 25.6375 1.33576C25.6265 1.36171 25.6208 1.38952 25.6208 1.4176V1.65115C25.62 1.65568 25.62 1.66031 25.6208 1.66484V3.51438V3.98404C25.6208 4.03622 25.6156 4.08755 25.6156 4.13888V5.78995C25.6156 7.44016 26.9503 8.8209 28.6342 8.84828C29.0418 8.85509 29.4468 8.78231 29.8254 8.63417C30.204 8.48603 30.5487 8.26551 30.8394 7.98545C31.1301 7.7054 31.361 7.37142 31.5187 7.00299C31.6763 6.63457 31.7576 6.23907 31.7576 5.83957V4.13888C31.7576 4.09439 31.7568 4.0482 31.7541 4.00286Z" fill="white"/>
<path d="M18.3117 2.75559V8.8637H19.9188V8.6464V7.20749H21.3417C23.0256 7.20749 24.4345 5.89947 24.4624 4.24925C24.4694 3.84941 24.395 3.45222 24.2435 3.08091C24.092 2.70959 23.8665 2.3716 23.5801 2.08668C23.2938 1.80177 22.9524 1.57565 22.5758 1.42156C22.1993 1.26746 21.7951 1.18847 21.3871 1.18921H18.5299C18.4721 1.18921 18.4166 1.21175 18.3756 1.25185C18.3347 1.29196 18.3117 1.34636 18.3117 1.40308V2.75559ZM22.8589 4.22102C22.8589 4.40725 22.8214 4.59165 22.7487 4.76368C22.6759 4.93572 22.5693 5.09203 22.4349 5.22367C22.3005 5.35531 22.1409 5.4597 21.9653 5.53089C21.7897 5.60208 21.6015 5.63866 21.4115 5.63855H19.9153V2.75645H21.4115C21.6015 2.75633 21.7897 2.79292 21.9653 2.8641C22.1409 2.93529 22.3005 3.03969 22.4349 3.17133C22.5693 3.30297 22.6759 3.45927 22.7487 3.63131C22.8214 3.80335 22.8589 3.98775 22.8589 4.17397V4.22102Z" fill="white"/>
<path d="M46.0223 1.19348H40.5437C40.515 1.19337 40.4865 1.19882 40.4599 1.20952C40.4334 1.22021 40.4092 1.23595 40.3888 1.25582C40.3685 1.27569 40.3523 1.29931 40.3413 1.32531C40.3303 1.35131 40.3246 1.37919 40.3246 1.40735V2.77611H44.5365L44.4405 2.87963L40.3176 7.2725V8.85513H46.2536C46.3115 8.85513 46.367 8.8326 46.4079 8.79249C46.4489 8.75238 46.4719 8.69798 46.4719 8.64126V7.2725H42.5995L46.4727 3.14311V1.19348H46.0223Z" fill="white"/>
<path d="M38.6713 1.19348H33.1945C33.1366 1.19348 33.0811 1.21601 33.0401 1.25612C32.9992 1.29623 32.9762 1.35063 32.9762 1.40735V2.77611H37.1873L37.0913 2.87963L32.9692 7.2725V8.85513H38.9052C38.934 8.85524 38.9624 8.8498 38.989 8.8391C39.0156 8.8284 39.0398 8.81266 39.0601 8.79279C39.0805 8.77292 39.0966 8.74931 39.1076 8.7233C39.1187 8.6973 39.1243 8.66942 39.1243 8.64126V7.2725H35.2485L39.1217 3.14311V1.19348H38.6713Z" fill="white"/>
<path d="M19.3924 12.1129C19.3683 12.0665 19.3347 12.0254 19.2938 11.9922C19.2529 11.9585 19.2069 11.9311 19.1576 11.911C19.1087 11.8896 19.0546 11.8716 19.0031 11.8545C18.9516 11.8374 18.8983 11.8194 18.8468 11.804C18.7996 11.7898 18.7539 11.7709 18.7106 11.7476C18.6735 11.7276 18.6408 11.7006 18.6146 11.668C18.5887 11.635 18.5754 11.5941 18.5771 11.5525C18.5763 11.5177 18.5838 11.4831 18.5989 11.4516C18.6123 11.4184 18.6339 11.389 18.6617 11.366C18.6923 11.3416 18.7272 11.323 18.7647 11.3113C18.8109 11.2976 18.8589 11.2909 18.907 11.2916C18.9564 11.2908 19.0056 11.2974 19.0528 11.3113C19.0882 11.3227 19.1224 11.3373 19.155 11.3549C19.1793 11.3678 19.2026 11.3824 19.2248 11.3985C19.2386 11.4099 19.2557 11.4168 19.2737 11.4182C19.2853 11.4179 19.2966 11.415 19.3068 11.4097C19.3155 11.4017 19.3231 11.3928 19.3295 11.3831L19.388 11.2762C19.3262 11.2192 19.2531 11.1752 19.1733 11.147C19.0863 11.1174 18.9948 11.1026 18.9027 11.1034C18.8228 11.1018 18.7434 11.1151 18.6687 11.1428C18.6042 11.1646 18.5449 11.1989 18.4941 11.2437C18.449 11.2858 18.413 11.3364 18.3885 11.3926C18.3644 11.4465 18.3522 11.5048 18.3527 11.5637C18.3504 11.6276 18.3626 11.6913 18.3885 11.7501C18.4109 11.7981 18.4437 11.8407 18.4845 11.875C18.5254 11.9087 18.5713 11.9358 18.6207 11.9555C18.6705 11.9777 18.7237 11.9948 18.7752 12.0128L18.9315 12.0581C18.9786 12.0718 19.0243 12.0901 19.0677 12.1129C19.1057 12.1341 19.1385 12.1633 19.1637 12.1984C19.1901 12.2336 19.2045 12.2762 19.2047 12.3199C19.205 12.3627 19.1967 12.4051 19.1803 12.4448C19.1646 12.4819 19.14 12.5147 19.1087 12.5406C19.0762 12.5685 19.0381 12.5895 18.9969 12.6022C18.9474 12.618 18.8954 12.6256 18.8433 12.6244C18.784 12.626 18.7248 12.617 18.6687 12.5979C18.6253 12.5842 18.5839 12.5649 18.5456 12.5406C18.5116 12.5192 18.4854 12.5013 18.4627 12.4841C18.4464 12.4687 18.4251 12.4593 18.4025 12.4576C18.3914 12.4574 18.3804 12.4604 18.3711 12.4662C18.3617 12.4722 18.3534 12.4797 18.3466 12.4884L18.2776 12.5954C18.3474 12.6633 18.4302 12.7171 18.5212 12.7536C18.6202 12.794 18.7265 12.8141 18.8337 12.8126C18.9197 12.8142 19.0053 12.7999 19.086 12.7707C19.1553 12.7474 19.2185 12.7095 19.2711 12.6595C19.3222 12.6124 19.3621 12.5549 19.388 12.491C19.4147 12.4257 19.4284 12.356 19.4282 12.2857C19.4286 12.2263 19.4164 12.1674 19.3924 12.1129Z" fill="white"/>
<path d="M22.5306 11.6158C22.491 11.5141 22.43 11.4217 22.3517 11.3446C22.2728 11.2698 22.1793 11.2116 22.0767 11.1735C21.9628 11.1306 21.8417 11.1091 21.7197 11.1102C21.5976 11.1086 21.4764 11.1301 21.3626 11.1735C21.2596 11.2122 21.1653 11.2703 21.085 11.3446C21.0081 11.422 20.9486 11.5144 20.9104 11.6158C20.8243 11.8379 20.8243 12.0832 20.9104 12.3053C20.9488 12.4061 21.0083 12.4979 21.085 12.5748C21.1649 12.6506 21.2592 12.7102 21.3626 12.7501C21.4765 12.7931 21.5976 12.8146 21.7197 12.8134C21.8416 12.8141 21.9627 12.7927 22.0767 12.7501C22.1796 12.7108 22.2732 12.6511 22.3517 12.5748C22.4298 12.4981 22.4908 12.4064 22.5306 12.3053C22.6144 12.0828 22.6144 11.8383 22.5306 11.6158ZM22.3028 12.2343C22.2762 12.3113 22.2337 12.382 22.178 12.4422C22.1213 12.498 22.0535 12.542 21.9789 12.5713C21.8951 12.6017 21.8063 12.6165 21.717 12.615C21.6277 12.6167 21.5389 12.6019 21.4552 12.5713C21.3803 12.5424 21.3125 12.4984 21.2561 12.4422C21.1989 12.3828 21.1557 12.3118 21.1296 12.2343C21.0982 12.1457 21.0829 12.0525 21.0842 11.9588C21.083 11.8648 21.0983 11.7714 21.1296 11.6825C21.1556 11.6065 21.1983 11.5371 21.2545 11.4789C21.3107 11.4207 21.3792 11.3751 21.4552 11.3454C21.5385 11.3135 21.6275 11.2981 21.717 11.3001C21.8065 11.2983 21.8955 11.3137 21.9789 11.3454C22.0542 11.3748 22.1221 11.4197 22.178 11.4772C22.2339 11.5362 22.2764 11.6062 22.3028 11.6825C22.3333 11.7715 22.3483 11.8649 22.3473 11.9588C22.3484 12.0524 22.3334 12.1456 22.3028 12.2343Z" fill="white"/>
<path d="M25.228 11.3095V11.1222H24.1342V12.7947H24.376V12.0769H25.1041V11.8921H24.376V11.3104L25.228 11.3095Z" fill="white"/>
<path d="M26.5688 11.1222V11.313H27.1432V12.7947H27.3842V11.3138H27.956V11.1222H26.5688Z" fill="white"/>
<path d="M31.5236 11.1222C31.5048 11.122 31.4865 11.1283 31.4721 11.1402C31.4587 11.1491 31.4486 11.162 31.4433 11.1769L31.0767 12.3378C31.0697 12.3601 31.0636 12.3823 31.0592 12.4037C31.0548 12.4251 31.0496 12.4525 31.0452 12.4781C31.0353 12.4308 31.0227 12.3839 31.0077 12.3378L30.5922 11.1778C30.5858 11.1627 30.5759 11.1493 30.5634 11.1385C30.5472 11.1283 30.5285 11.123 30.5093 11.1231H30.4403C30.4215 11.1228 30.4032 11.1292 30.3888 11.141C30.3754 11.1499 30.3653 11.1628 30.36 11.1778L29.9419 12.3378C29.9358 12.3601 29.9288 12.3823 29.9218 12.4063C29.9148 12.4302 29.9104 12.4567 29.9043 12.4824C29.9005 12.4568 29.8953 12.4313 29.8886 12.4063C29.884 12.3831 29.8778 12.3603 29.8703 12.3378L29.5054 11.1778C29.5004 11.1624 29.491 11.1488 29.4784 11.1385C29.4623 11.1289 29.4439 11.1236 29.4251 11.1231H29.2261L29.7778 12.7955H29.9942L30.4455 11.5217C30.4501 11.5088 30.4539 11.4957 30.4569 11.4824L30.47 11.4362C30.4761 11.4652 30.4842 11.4938 30.4944 11.5217L30.944 12.7955H31.1579L31.7113 11.1222H31.5236Z" fill="white"/>
<path d="M33.7906 11.1222H33.5471L32.8391 12.7946H33.0251C33.0435 12.7952 33.0615 12.7891 33.0757 12.7775C33.089 12.768 33.0993 12.7549 33.1054 12.7399L33.273 12.337L33.3376 12.1736L33.6169 11.4943C33.6269 11.4716 33.6351 11.4481 33.6414 11.4242C33.6501 11.3985 33.6588 11.37 33.6675 11.3386C33.6821 11.3922 33.7002 11.4448 33.7217 11.496L34.001 12.1753L34.0674 12.3387L34.2332 12.7416C34.2394 12.7568 34.2493 12.7703 34.262 12.781C34.2778 12.7918 34.2969 12.7972 34.3161 12.7964H34.5012L33.7906 11.1222Z" fill="white"/>
<path d="M36.7552 12.1325C36.7346 12.103 36.7078 12.0782 36.6766 12.0598C36.7405 12.0465 36.8021 12.0246 36.8599 11.9948C36.9114 11.9675 36.9582 11.9326 36.9987 11.8913C37.0356 11.8506 37.0651 11.804 37.086 11.7536C37.1272 11.6369 37.1241 11.5097 37.0773 11.3951C37.052 11.3371 37.011 11.2871 36.9586 11.2505C36.899 11.206 36.8306 11.1739 36.7578 11.1564C36.6628 11.1327 36.5651 11.1215 36.4671 11.1231H35.9651V12.7955H36.2043V12.0975H36.385C36.411 12.0961 36.437 12.1005 36.461 12.1103C36.4789 12.1199 36.4944 12.1334 36.5064 12.1496L36.9664 12.7485C36.9771 12.7641 36.9917 12.7767 37.0089 12.7851C37.026 12.7935 37.0451 12.7974 37.0642 12.7964H37.2746L36.7552 12.1325ZM36.4531 11.9332H36.2008V11.3027H36.4627C36.572 11.2959 36.6807 11.3229 36.7735 11.3797C36.8083 11.4057 36.836 11.4396 36.8543 11.4786C36.8725 11.5175 36.8808 11.5602 36.8782 11.603C36.8794 11.6496 36.8695 11.6959 36.8494 11.7382C36.8311 11.7782 36.8036 11.8136 36.7691 11.8417C36.7298 11.8734 36.6839 11.8964 36.6347 11.9093C36.5757 11.9258 36.5145 11.9339 36.4531 11.9332Z" fill="white"/>
<path d="M39.8375 11.3095V11.1222H38.7454V12.7947H39.8375V12.609H38.9864V12.0393H39.6743V11.8622H38.9864V11.3087L39.8375 11.3095Z" fill="white"/>
<path d="M44.2825 11.1222V11.869H43.3292V11.1222H43.0857V12.7947H43.3292V12.0333H44.2825V12.7947H44.5243V11.1222H44.2825Z" fill="white"/>
<path d="M47.7542 11.6158C47.7161 11.5144 47.6566 11.422 47.5796 11.3446C47.4994 11.2704 47.4051 11.2122 47.302 11.1735C47.0715 11.0891 46.8176 11.0891 46.5871 11.1735C46.4849 11.2119 46.3916 11.2701 46.313 11.3446C46.237 11.4228 46.1777 11.515 46.1384 11.6158C46.0546 11.8383 46.0546 12.0828 46.1384 12.3053C46.1779 12.4055 46.2373 12.4971 46.313 12.5748C46.3912 12.6509 46.4845 12.7106 46.5871 12.7502C46.8176 12.8346 47.0715 12.8346 47.302 12.7502C47.4038 12.7102 47.4966 12.6512 47.5753 12.5765C47.652 12.4996 47.7115 12.4078 47.7499 12.307C47.836 12.085 47.836 11.8396 47.7499 11.6175L47.7542 11.6158ZM47.5281 12.2343C47.5 12.3112 47.4567 12.3818 47.4007 12.4422C47.3448 12.4986 47.2772 12.5427 47.2025 12.5714C47.1188 12.6019 47.03 12.6167 46.9406 12.615C46.8514 12.6163 46.7626 12.6015 46.6788 12.5714C46.604 12.5422 46.5363 12.4983 46.4797 12.4422C46.424 12.3816 46.3808 12.311 46.3523 12.2343C46.3217 12.1456 46.3066 12.0525 46.3078 11.9589C46.3067 11.865 46.3218 11.7716 46.3523 11.6825C46.3805 11.6066 46.4239 11.5368 46.4797 11.4772C46.5354 11.4196 46.6034 11.3746 46.6788 11.3455C46.7622 11.3139 46.8512 11.2985 46.9406 11.3001C47.0301 11.2981 47.1191 11.3135 47.2025 11.3455C47.2779 11.3742 47.3456 11.4192 47.4007 11.4772C47.4569 11.5365 47.5002 11.6064 47.5281 11.6825C47.5584 11.7716 47.5729 11.865 47.5709 11.9589C47.573 12.0524 47.5585 12.1456 47.5281 12.2343Z" fill="white"/>
<path d="M50.5153 11.1222V12.1385C50.5156 12.2039 50.505 12.2689 50.4839 12.331C50.4651 12.3872 50.4338 12.4387 50.3922 12.4815C50.3504 12.5241 50.3002 12.5578 50.2447 12.5808C50.1819 12.6037 50.1153 12.6153 50.0483 12.615C49.9809 12.6159 49.9141 12.6034 49.8519 12.5782C49.7957 12.5568 49.7453 12.5231 49.7043 12.4798C49.665 12.4367 49.6353 12.386 49.617 12.331C49.5948 12.2692 49.5841 12.204 49.5856 12.1385V11.1222H49.3464V12.1385C49.3454 12.2303 49.3619 12.3214 49.3953 12.4071C49.4259 12.4875 49.4741 12.5602 49.5367 12.6201C49.5987 12.6829 49.6742 12.7314 49.7576 12.7621C49.9476 12.8317 50.1568 12.8317 50.3468 12.7621C50.4308 12.7309 50.507 12.6825 50.5703 12.6201C50.6312 12.5594 50.6785 12.4868 50.7091 12.4071C50.7424 12.3214 50.759 12.2303 50.758 12.1385V11.1222H50.5153Z" fill="white"/>
<path d="M53.3497 12.1128C53.3265 12.0666 53.2938 12.0255 53.2537 11.9922C53.212 11.9596 53.1662 11.9323 53.1175 11.9109C53.066 11.8895 53.0145 11.8716 52.9604 11.8545C52.9063 11.8374 52.8556 11.8194 52.8041 11.804C52.757 11.7896 52.7113 11.7707 52.668 11.7475C52.6308 11.7276 52.5982 11.7005 52.5719 11.668C52.546 11.635 52.5327 11.5941 52.5344 11.5525C52.5349 11.5178 52.5423 11.4835 52.5562 11.4515C52.5696 11.4184 52.5912 11.389 52.6191 11.366C52.6496 11.3416 52.6845 11.323 52.7221 11.3112C52.8162 11.2849 52.916 11.2849 53.0102 11.3112C53.0455 11.3226 53.0797 11.3372 53.1123 11.3549C53.1366 11.3678 53.1599 11.3824 53.1821 11.3985C53.1959 11.4099 53.213 11.4167 53.231 11.4182C53.2426 11.4179 53.2539 11.415 53.2642 11.4096C53.2735 11.4024 53.2812 11.3934 53.2869 11.3831L53.3454 11.2762C53.2842 11.2196 53.2121 11.1756 53.1332 11.147C53.0453 11.1176 52.9529 11.1028 52.86 11.1034C52.7802 11.102 52.7008 11.1154 52.6261 11.1427C52.5616 11.1646 52.5022 11.1989 52.4515 11.2437C52.4063 11.2857 52.3704 11.3364 52.3458 11.3925C52.3218 11.4464 52.3096 11.5047 52.3101 11.5636C52.3077 11.6276 52.32 11.6913 52.3458 11.7501C52.3683 11.798 52.401 11.8407 52.4419 11.875C52.4827 11.9086 52.5286 11.9358 52.578 11.9554C52.6278 11.9777 52.6811 11.9948 52.7326 12.0127L52.8888 12.0581C52.936 12.0718 52.9816 12.0901 53.025 12.1128C53.063 12.1341 53.0958 12.1633 53.121 12.1984C53.1474 12.2336 53.1618 12.2761 53.162 12.3199C53.1637 12.3628 53.1553 12.4055 53.1376 12.4448C53.1219 12.4819 53.0974 12.5147 53.066 12.5406C53.0338 12.5688 52.9956 12.5898 52.9543 12.6022C52.9053 12.6179 52.8539 12.6254 52.8024 12.6244C52.743 12.6259 52.6839 12.6169 52.6278 12.5979C52.5844 12.5841 52.543 12.5648 52.5047 12.5406C52.4715 12.5192 52.4445 12.5012 52.4174 12.4841C52.4011 12.4686 52.3798 12.4592 52.3572 12.4576C52.3461 12.4574 52.3352 12.4603 52.3258 12.4661C52.3164 12.4722 52.3081 12.4797 52.3013 12.4884L52.2324 12.5953C52.3021 12.6633 52.3849 12.7171 52.4759 12.7536C52.5749 12.7939 52.6812 12.814 52.7884 12.8126C52.8744 12.8141 52.96 12.7999 53.0407 12.7707C53.1105 12.7468 53.1744 12.7089 53.2284 12.6595C53.2794 12.6123 53.3193 12.5548 53.3454 12.491C53.3721 12.4257 53.3857 12.356 53.3855 12.2856C53.3874 12.2261 53.3751 12.167 53.3497 12.1128Z" fill="white"/>
<path d="M55.9965 11.3095V11.1222H54.908V12.7947H56V12.609H55.1489V12.0393H55.8394V11.8622H55.1489V11.3087L55.9965 11.3095Z" fill="white"/>

</svg>
